<svg width="800" height="600" xmlns="http://www.w3.org/2000/svg">
 <g>
  <title>Layer 1</title>
  <path id="svg_6" d="m333.22971,88.0061c0,0 -33.68588,-1.85583 -150.14991,-1.8509c-116.46403,0.00494 -170.64004,112.62933 -181.54132,233.84984c-10.90128,121.22051 73.78833,236.05091 210.15086,258.778c108.18094,-1.81817 116.36889,-30.14127 260.00409,-69.23186c82.7266,-21.818 157.95193,-8.06859 203.70182,-14.15877c136.10753,-23.66725 119.48982,-219.21331 123.30506,-260.42749c-0.25968,-51.02399 -17.32119,-195.41983 -124.26223,-205.28925c-106.94104,-9.86942 -271.29176,60.00243 -340.52337,58.15941c-69.23162,-1.84302 -301.65142,-66.3982 -408.0975,-125.13302c-106.44608,-58.73481 942.80553,5.30214 941.88876,6.52821c0.91677,-1.22607 47.07134,691.0925 46.15457,690.78011c0.91677,0.31239 -668.32451,12.62028 -669.24131,12.30789c0.91679,0.31239 -337.55006,-59.68855 -336.92838,-60.00094c-0.62168,0.31239 2.45529,-659.69798 3.07697,-658.47191" opacity="NaN" stroke="#984029" fill="#984029"/>
 </g>

</svg>